<?xml version="1.0" encoding="UTF-8" standalone="no"?>
<!-- Created with Inkscape (http://www.inkscape.org/) -->

<svg
   xmlns:dc="http://purl.org/dc/elements/1.1/"
   xmlns:cc="http://creativecommons.org/ns#"
   xmlns:rdf="http://www.w3.org/1999/02/22-rdf-syntax-ns#"
   xmlns:svg="http://www.w3.org/2000/svg"
   xmlns="http://www.w3.org/2000/svg"
   xmlns:sodipodi="http://sodipodi.sourceforge.net/DTD/sodipodi-0.dtd"
   xmlns:inkscape="http://www.inkscape.org/namespaces/inkscape"
   width="744.09448819"
   height="1052.3622047"
   id="svg3005"
   version="1.1"
   inkscape:version="0.48.2 r9819"
   sodipodi:docname="logo.svg">
  <defs
     id="defs3007">
    <inkscape:path-effect
       effect="spiro"
       id="path-effect3078"
       is_visible="true" />
  </defs>
  <sodipodi:namedview
     id="base"
     pagecolor="#ffffff"
     bordercolor="#666666"
     borderopacity="1.0"
     inkscape:pageopacity="0.0"
     inkscape:pageshadow="2"
     inkscape:zoom="2.8"
     inkscape:cx="125.04603"
     inkscape:cy="962.17494"
     inkscape:document-units="px"
     inkscape:current-layer="layer1"
     showgrid="false"
     inkscape:window-width="1920"
     inkscape:window-height="1018"
     inkscape:window-x="-8"
     inkscape:window-y="-8"
     inkscape:window-maximized="1" />
  <metadata
     id="metadata3010">
    <rdf:RDF>
      <cc:Work
         rdf:about="">
        <dc:format>image/svg+xml</dc:format>
        <dc:type
           rdf:resource="http://purl.org/dc/dcmitype/StillImage" />
        <dc:title></dc:title>
      </cc:Work>
    </rdf:RDF>
  </metadata>
  <g
     inkscape:label="Layer 1"
     inkscape:groupmode="layer"
     id="layer1">
    <path
       style="opacity:1;color:#000000;fill:#000000;fill-opacity:1;fill-rule:nonzero;stroke:none;stroke-width:1.37500000000000000;marker:none;visibility:visible;display:inline;overflow:visible;enable-background:accumulate"
       d="M 36.59375 14.4375 C 35.48575 14.4375 34.59375 15.3295 34.59375 16.4375 L 34.59375 53.34375 C 34.59375 54.45175 35.48575 55.34375 36.59375 55.34375 L 88.90625 55.34375 C 90.01425 55.34375 90.90625 54.45175 90.90625 53.34375 L 90.90625 16.4375 C 90.90625 15.3295 90.01425 14.4375 88.90625 14.4375 L 36.59375 14.4375 z M 39.9375 19.46875 L 50.3125 19.46875 L 53.1875 30.40625 L 57.15625 19.46875 L 68.65625 19.46875 L 72.46875 30.34375 L 75.40625 19.46875 L 85.9375 19.46875 L 77.15625 52.03125 C 77.081095 52.301892 76.944823 52.547018 76.71875 52.75 C 76.492598 52.95298 76.26328 53.031249 76.0625 53.03125 L 71.71875 53.03125 C 71.517897 53.031249 71.325785 52.950143 71.125 52.78125 C 70.924148 52.612357 70.787876 52.396675 70.6875 52.125 L 62.75 29.90625 L 55.1875 52.125 C 55.112367 52.362587 54.976095 52.564062 54.75 52.75 C 54.52387 52.93594 54.294552 53.031249 54.09375 53.03125 L 49.8125 53.03125 C 49.611669 53.031249 49.382351 52.952981 49.15625 52.75 C 48.930126 52.547018 48.79385 52.301892 48.71875 52.03125 L 39.9375 19.46875 z "
       id="rect3070" />
    <path
       style="font-size:43.73607634999999800px;font-style:normal;font-variant:normal;font-weight:normal;font-stretch:normal;text-indent:0;text-align:start;text-decoration:none;line-height:125%;letter-spacing:0px;word-spacing:0px;text-transform:none;direction:ltr;block-progression:tb;writing-mode:lr-tb;text-anchor:start;baseline-shift:baseline;color:#000000;fill:#000000;fill-opacity:1;fill-rule:nonzero;stroke:none;stroke-width:1px;marker:none;visibility:visible;display:inline;overflow:visible;enable-background:accumulate;font-family:Myriad Pro;-inkscape-font-specification:Myriad Pro;opacity:1"
       d="m 39.75,69.59375 c -0.426933,4e-5 -0.761625,0.18731 -1,0.59375 -0.238377,0.406519 -0.275232,0.893415 -0.125,1.46875 l 2,7.40625 10.375,0 -2.21875,-8.46875 C 48.705357,70.323147 48.550866,70.078021 48.3125,69.875 48.074113,69.672058 47.857059,69.59379 47.65625,69.59375 l -7.90625,0 z"
       id="path3092"
       inkscape:connector-curvature="0" />
    <path
       style="font-size:43.73607634999999800px;font-style:normal;font-variant:normal;font-weight:normal;font-stretch:normal;text-indent:0;text-align:start;text-decoration:none;line-height:125%;letter-spacing:0px;word-spacing:0px;text-transform:none;direction:ltr;block-progression:tb;writing-mode:lr-tb;text-anchor:start;baseline-shift:baseline;color:#000000;fill:#000000;fill-opacity:1;fill-rule:nonzero;stroke:none;stroke-width:1px;marker:none;visibility:visible;display:inline;overflow:visible;enable-background:accumulate;font-family:Myriad Pro;-inkscape-font-specification:Myriad Pro;opacity:1"
       d="m 60.375,69.59375 c -0.200841,4e-5 -0.39891,0.09484 -0.625,0.28125 -0.226135,0.186493 -0.362406,0.388485 -0.4375,0.625 l -3.09375,8.5625 13.34375,0 -3,-8.5625 C 66.51265,70.229397 66.382334,70.013199 66.15625,69.84375 65.930109,69.67438 65.700791,69.59379 65.5,69.59375 l -5.125,0 z"
       id="path3090"
       inkscape:connector-curvature="0" />
    <path
       style="font-size:43.73607634999999800px;font-style:normal;font-variant:normal;font-weight:normal;font-stretch:normal;text-indent:0;text-align:start;text-decoration:none;line-height:125%;letter-spacing:0px;word-spacing:0px;text-transform:none;direction:ltr;block-progression:tb;writing-mode:lr-tb;text-anchor:start;baseline-shift:baseline;color:#000000;fill:#000000;fill-opacity:1;fill-rule:nonzero;stroke:none;stroke-width:1px;marker:none;visibility:visible;display:inline;overflow:visible;enable-background:accumulate;font-family:Myriad Pro;-inkscape-font-specification:Myriad Pro;opacity:1"
       d="m 78.125,69.59375 c -0.226153,4e-5 -0.430177,0.07831 -0.65625,0.28125 C 77.242598,70.078021 77.075076,70.323147 77,70.59375 l -2.28125,8.46875 10.53125,0 2,-7.40625 c 0.150181,-0.575335 0.101063,-1.062231 -0.125,-1.46875 -0.226162,-0.40644 -0.541867,-0.59371 -0.96875,-0.59375 l -8.03125,0 z"
       id="text3013"
       inkscape:connector-curvature="0" />
    <text
       xml:space="preserve"
       style="font-size:43.73607635px;font-style:normal;font-variant:normal;font-weight:normal;font-stretch:normal;text-indent:0;text-align:start;text-decoration:none;line-height:125%;letter-spacing:0px;word-spacing:0px;text-transform:none;direction:ltr;block-progression:tb;writing-mode:lr-tb;text-anchor:start;baseline-shift:baseline;color:#000000;fill:#000000;fill-opacity:1;fill-rule:nonzero;stroke:none;stroke-width:1px;marker:none;visibility:visible;display:inline;overflow:visible;enable-background:accumulate;font-family:Myriad Pro;-inkscape-font-specification:Myriad Pro"
       x="153.90746"
       y="46.974876"
       id="text3013-4"
       sodipodi:linespacing="125%"
       transform="scale(0.86139893,1.1609023)"><tspan
         sodipodi:role="line"
         id="tspan3015-0"
         x="153.90746"
         y="46.974876"
         style="font-style:normal;font-variant:normal;font-weight:normal;font-stretch:normal;fill:#000000;font-family:BorisBlackBloxx;-inkscape-font-specification:BorisBlackBloxx">W</tspan></text>
    <text
       xml:space="preserve"
       style="font-size:43.73607635px;font-style:normal;font-variant:normal;font-weight:normal;font-stretch:normal;text-indent:0;text-align:start;text-decoration:none;line-height:125%;letter-spacing:0px;word-spacing:0px;text-transform:none;direction:ltr;block-progression:tb;writing-mode:lr-tb;text-anchor:start;baseline-shift:baseline;color:#000000;fill:#000000;fill-opacity:1;fill-rule:nonzero;stroke:none;stroke-width:1px;marker:none;visibility:visible;display:inline;overflow:visible;enable-background:accumulate;font-family:Myriad Pro;-inkscape-font-specification:Myriad Pro"
       x="153.90746"
       y="94.358002"
       id="text3013-1-9"
       sodipodi:linespacing="125%"
       transform="scale(0.86139893,1.1609023)"><tspan
         sodipodi:role="line"
         id="tspan3015-7-4"
         x="153.90746"
         y="94.358002"
         style="font-style:normal;font-variant:normal;font-weight:normal;font-stretch:normal;fill:#000000;font-family:BorisBlackBloxx;-inkscape-font-specification:BorisBlackBloxx">W</tspan></text>
    <path
       style="opacity:1;color:#000000;fill:#000000;fill-opacity:1;fill-rule:nonzero;stroke:none;stroke-width:1.37500000000000000;marker:none;visibility:visible;display:inline;overflow:visible;enable-background:accumulate"
       d="M 33.9375 56.125 C 32.8295 56.125 31.9375 56.868134 31.9375 57.8125 C 31.9375 58.756866 32.8295 59.53125 33.9375 59.53125 L 62.25 59.53125 L 62.25 60.59375 C 60.95017 61.028814 59.96875 62.252178 59.96875 63.6875 C 59.96875 65.483197 61.485553 66.9375 63.28125 66.9375 C 65.076946 66.9375 66.53125 65.483197 66.53125 63.6875 C 66.53125 62.233867 65.569853 60.982529 64.25 60.5625 L 64.25 59.53125 L 91.5625 59.53125 C 92.6705 59.53125 93.5625 58.756866 93.5625 57.8125 C 93.5625 56.868134 92.6705 56.125 91.5625 56.125 L 33.9375 56.125 z M 63.28125 62.40625 C 63.996066 62.40625 64.53125 62.972683 64.53125 63.6875 C 64.53125 64.402317 63.996066 64.96875 63.28125 64.96875 C 62.566433 64.96875 62 64.402317 62 63.6875 C 62 62.972683 62.566433 62.40625 63.28125 62.40625 z "
       id="rect3072" />
  </g>
</svg>
